PathFileType	4	(X/Y/Z)	 s02c0203.trc
DataRate	CameraRate	NumFrames	NumMarkers	Units	OrigDataRate	OrigDataStartFrame	OrigNumFrames
200	200	6	51	mm	200	1751	2000
Frame#	Time	racr			lacr			c7			jug			rlel			rdr			llel			ldr			s2			lic			ric			lasi			rasi			rpsi			lpsi			rgt			lgt			rth1			rth2			rth3			rth4			rlfc			rmfc			rsh1			rsh2			rsh3			rsh4			rlmal			rmmal			rcal			rtoe			rmt5			rmt1			lth1			lth2			lth4			lth3			llfc			lmfc			lsh1			lsh2			lsh3			lsh4			llmal			lmmal			lcal			ltoe			lmt5			SBIKE			LBIKE			RBIKE			
		X1	Y1	Z1	X2	Y2	Z2	X3	Y3	Z3	X4	Y4	Z4	X5	Y5	Z5	X6	Y6	Z6	X7	Y7	Z7	X8	Y8	Z8	X9	Y9	Z9	X10	Y10	Z10	X11	Y11	Z11	X12	Y12	Z12	X13	Y13	Z13	X14	Y14	Z14	X15	Y15	Z15	X16	Y16	Z16	X17	Y17	Z17	X18	Y18	Z18	X19	Y19	Z19	X20	Y20	Z20	X21	Y21	Z21	X22	Y22	Z22	X23	Y23	Z23	X24	Y24	Z24	X25	Y25	Z25	X26	Y26	Z26	X27	Y27	Z27	X28	Y28	Z28	X29	Y29	Z29	X30	Y30	Z30	X31	Y31	Z31	X32	Y32	Z32	X33	Y33	Z33	X34	Y34	Z34	X35	Y35	Z35	X36	Y36	Z36	X37	Y37	Z37	X38	Y38	Z38	X39	Y39	Z39	X40	Y40	Z40	X41	Y41	Z41	X42	Y42	Z42	X43	Y43	Z43	X44	Y44	Z44	X45	Y45	Z45	X46	Y46	Z46	X47	Y47	Z47	X48	Y48	Z48	X49	Y49	Z49	X50	Y50	Z50	X51	Y51	Z51	
1751	8.7550	516.025105	1242.792740	-121.958702	571.442138	1212.983390	-435.753298	526.647218	1275.410927	-288.099546	470.055745	1144.806046	-282.207546	541.621988	1008.262391	0.002429	696.916429	891.314747	-89.056287	548.596825	1010.821345	-629.992273	696.828901	881.144254	-542.977590	4.399481	1117.542354	-337.267193	132.398507	1105.646437	-474.780765	112.942093	1122.802823	-182.574969	172.805095	1072.998028	-442.196864	167.406308	1110.586030	-215.451683	14.864932	1151.320718	-303.592317	29.593956	1155.039588	-388.899947	103.514823	1040.793728	-145.774345	90.407792	1007.986399	-502.357822	196.299127	1006.526793	-135.097710	280.640579	980.127155	-136.863215	340.599058	924.952785	-111.545176	297.161475	1003.099135	-162.325906	440.536521	815.979626	-140.177823	439.356153	796.904435	-249.771382	432.981285	703.336412	-124.663282	432.828288	615.264066	-143.690512	394.345688	539.212605	-140.829593	448.815928	614.941147	-179.861472	354.464826	430.728642	-147.579305	362.084169	449.079837	-227.247161	280.379489	380.372619	-188.581631	567.112193	373.919331	-185.280340	457.905054	357.908102	-125.155877	484.331041	375.970392	-231.782121	210.010709	927.367258	-511.856758	285.631999	884.076650	-508.410274	308.156150	907.002918	-489.679675	329.182939	806.528263	-509.624578	387.905449	726.367435	-485.814617	385.020979	697.330831	-381.510946	330.595172	639.571796	-504.366974	288.157649	566.210041	-486.719690	211.175587	519.235464	-489.698175	303.924114	555.669084	-450.137559	129.118541	456.045936	-475.608895	141.998756	441.975582	-399.588145	49.948899	459.781868	-435.690139	235.798133	240.965965	-436.348761	147.586869	301.850026	-499.407917	-126.403402	871.478496	-309.120587	37.257656	86.426173	-514.232908	33.510358	83.501755	-114.369212	
1752	8.7600	515.969461	1242.408809	-122.337113	570.832662	1212.952725	-436.532864	526.385812	1274.909472	-288.575384	469.830614	1144.296757	-282.511268	540.769236	1007.972484	-0.227814	696.300009	891.185577	-88.854559	548.203482	1010.460811	-630.114833	696.920256	881.226921	-543.079476	4.085501	1116.191323	-337.126421	131.993671	1104.646880	-474.568676	112.781588	1121.792279	-182.255134	172.389066	1072.332953	-441.893911	167.468874	1109.572129	-214.875041	14.665340	1149.935534	-303.041793	29.365007	1153.622364	-388.675160	103.100754	1039.027606	-145.240166	91.048652	1007.471237	-502.540501	195.518424	1002.824540	-135.690799	279.465537	975.146408	-136.920708	338.175801	918.244735	-111.777625	296.508711	997.565954	-162.340640	436.366517	808.186599	-140.977586	434.797516	789.224359	-251.000279	430.142464	695.472021	-124.758885	431.263031	607.173213	-143.657657	393.883978	530.568743	-140.489191	447.112248	606.599332	-180.487354	355.827716	420.212675	-147.050637	363.828762	439.863461	-227.064153	281.823597	370.432143	-188.184668	568.654828	362.495178	-185.434926	459.425909	347.002555	-125.164737	487.032315	366.469982	-229.075239	212.192044	929.726494	-511.336954	288.838265	888.315135	-507.653495	310.592026	911.528091	-488.391139	334.146725	811.615335	-508.802347	396.024282	733.673105	-487.354325	390.158080	703.107927	-380.578931	335.767947	646.426187	-503.867607	291.945192	573.923024	-486.334875	214.194863	528.296888	-489.472052	307.484552	563.122719	-449.721366	130.961314	466.679564	-475.665911	143.711447	452.181092	-399.647829	51.823956	471.611354	-435.666315	234.266617	250.134314	-436.311913	147.036622	312.196444	-499.378696	-126.405378	871.533144	-309.018926	37.278351	86.425744	-514.224558	33.520582	83.507045	-114.365939	
1753	8.7650	516.050477	1241.964289	-122.775749	570.152097	1213.040529	-437.519381	526.148307	1274.594194	-289.204920	469.535334	1144.008443	-283.099341	540.015464	1007.706132	-0.408175	695.790808	890.989406	-88.910248	547.871962	1009.974262	-630.254669	696.993442	881.200022	-543.142071	3.469631	1114.823229	-337.195333	131.413595	1103.856562	-474.266063	112.786894	1120.676412	-181.762527	172.016085	1071.760237	-441.485425	167.506617	1108.618921	-214.343229	14.564153	1148.424722	-302.217625	29.169727	1152.121742	-388.331544	102.993745	1037.362238	-145.060008	91.653820	1007.322616	-502.184143	194.617075	999.271213	-136.152140	278.579382	970.419827	-136.586030	335.438587	911.811477	-111.884401	295.683309	992.386599	-162.354302	431.098809	799.639884	-143.487329	430.413316	780.928251	-252.420945	426.719321	687.530856	-125.051676	429.326914	599.082790	-143.564994	393.289294	521.709742	-140.180335	445.073899	598.686575	-180.517408	356.961153	410.203545	-146.581318	366.593283	430.525271	-228.650741	282.809603	360.663055	-187.696039	569.663065	350.737992	-185.577455	460.394902	336.046324	-125.156547	487.234964	354.093009	-231.268804	214.135577	932.079064	-510.798143	291.795780	892.688617	-506.907843	312.774713	916.183669	-487.191545	339.119715	817.097436	-508.446078	400.153954	739.298426	-485.541904	397.551624	708.707987	-381.099835	341.019473	653.572722	-503.327097	296.037174	581.790127	-485.878320	217.308041	537.434138	-489.544350	311.071137	570.662044	-449.013067	133.173421	477.326084	-475.590065	145.697922	462.679769	-399.558276	53.839896	483.419106	-435.703661	233.458516	259.337567	-436.238329	147.120557	322.800902	-499.326310	-126.407848	871.545706	-309.001882	37.279672	86.418469	-514.233040	33.338978	83.766346	-114.290502	
1754	8.7700	516.200534	1241.580037	-123.292091	569.357385	1213.289635	-438.726724	525.823984	1274.335350	-290.045580	469.368838	1143.686599	-283.827409	539.320938	1007.386965	-0.660637	695.309351	890.884945	-88.822831	547.726297	1009.590020	-630.316822	697.020177	880.985747	-543.174711	3.181779	1113.349722	-336.673276	130.830709	1103.119674	-473.842212	112.967196	1119.807015	-181.194379	171.548622	1071.143759	-440.935700	167.800378	1107.790508	-213.734891	14.586732	1146.445104	-301.529678	29.179911	1150.659575	-387.896444	102.940269	1035.754597	-144.791487	92.093764	1007.043769	-501.983842	194.044653	996.462331	-135.413318	276.632054	964.463681	-137.864605	332.699708	905.315478	-112.219198	294.878202	987.636409	-161.673601	426.348202	791.731521	-144.215592	424.408784	772.769285	-253.001824	422.981983	679.184437	-125.877009	426.987984	590.901351	-143.566341	392.189625	512.985316	-139.849433	442.357824	590.734687	-180.679144	357.570605	400.189774	-146.146875	367.017616	420.728688	-228.170623	283.291258	351.377374	-187.293304	570.080104	338.938993	-185.686782	460.770476	325.125950	-125.187871	487.642699	343.057182	-231.086968	215.871266	934.542340	-510.258260	294.484112	897.144567	-506.248609	314.797316	920.930086	-486.101783	343.729645	822.733094	-508.025276	405.963438	746.046219	-485.077386	401.102217	712.970683	-379.918940	346.246379	660.922082	-502.803892	300.147890	589.861221	-485.391452	220.879584	546.561347	-489.242715	314.984656	578.472281	-448.480632	135.612373	488.018643	-475.406157	147.974327	473.167493	-399.408818	56.329091	495.054375	-435.594157	233.348336	268.989113	-436.248170	147.815745	333.387029	-499.219908	-126.413965	871.533281	-308.973612	37.280901	86.422831	-514.225667	33.886868	83.292226	-114.217613	
1755	8.7750	516.496006	1241.130716	-123.930562	568.437594	1213.535665	-439.930105	525.636955	1274.164150	-290.983549	468.944895	1143.618402	-284.757522	538.835954	1007.104662	-0.866905	694.948868	890.757973	-88.631419	547.563586	1008.943005	-630.556495	697.013891	880.717837	-543.207392	2.340215	1112.095619	-336.059313	130.214456	1102.146253	-473.391354	113.225734	1118.860566	-180.546288	171.175267	1070.688066	-440.495640	168.169156	1106.843736	-212.920942	14.804585	1144.547002	-300.693085	28.569890	1149.524392	-386.725051	102.791782	1034.295980	-144.301269	92.474145	1006.857972	-501.623430	193.290157	993.479500	-135.132668	275.055841	959.229806	-137.865005	329.674154	898.513276	-112.686788	293.813842	982.477410	-161.388213	421.457696	783.997786	-144.112651	418.983584	764.816815	-253.843919	418.666064	670.941002	-126.197110	425.835223	582.945724	-142.991533	390.560260	504.284013	-139.715694	439.265467	583.510710	-179.748101	357.536240	390.505765	-145.813114	366.718914	410.875048	-227.694541	283.057646	342.304652	-187.043454	569.710303	326.868700	-186.029508	460.438514	314.303685	-125.276768	487.436329	332.110189	-231.190939	217.357847	937.142268	-509.840402	296.868276	901.739983	-505.637711	316.350859	925.900268	-485.039515	348.108708	828.818951	-507.958638	411.614860	753.174214	-484.773077	403.533635	721.280511	-381.279920	351.443723	668.387693	-502.252473	304.298961	598.039207	-484.818577	224.548019	555.765380	-488.805519	318.995064	586.624909	-447.937314	138.314524	498.589127	-475.157110	150.510965	483.605609	-399.185131	59.195301	506.412798	-435.159791	233.983077	278.828018	-436.164645	149.058945	344.109575	-499.094865	-126.422280	871.534003	-308.948382	37.285070	86.414462	-514.231166	33.338656	83.750405	-114.281356	
1756	8.7800	516.856503	1240.663755	-124.707273	567.526886	1213.807442	-441.441032	525.454089	1274.047946	-292.140773	468.557914	1143.590473	-285.926419	538.457162	1006.844502	-1.154374	694.780716	890.605298	-88.462576	547.529154	1008.242374	-630.999786	696.986357	880.402153	-543.347020	2.201015	1110.934363	-335.183721	129.647971	1101.425063	-472.703257	113.602552	1118.115982	-179.768799	170.658130	1070.355647	-439.780473	168.563037	1106.015168	-212.203005	15.328725	1142.607106	-299.716034	27.834905	1148.604892	-385.464740	102.632056	1032.796379	-143.840416	92.716580	1006.844544	-501.205079	192.738856	990.361222	-134.350921	273.442845	954.036240	-137.728365	326.618317	891.769413	-113.072253	292.575191	976.768058	-160.727750	415.797462	775.688929	-144.791514	413.931456	757.100015	-253.198410	413.974468	662.420410	-126.324246	422.540140	574.729097	-142.553343	388.369587	495.476897	-139.519286	435.724360	575.298805	-179.816767	356.913492	380.914771	-145.622480	366.493129	402.241350	-226.897039	282.327303	333.561225	-186.961896	568.853112	314.862914	-186.195781	459.380333	303.496348	-125.348880	486.585372	321.296891	-231.094306	218.564907	939.775203	-509.289920	298.957626	906.472359	-505.042481	317.709257	930.917784	-484.116734	352.150046	834.782814	-507.574390	416.977332	760.494532	-484.462500	410.298502	729.562622	-380.344822	356.575619	676.124988	-501.717361	308.594096	606.337922	-484.248081	228.326697	564.993398	-488.325274	323.002550	594.825395	-447.342909	141.119956	509.158178	-474.857058	153.373354	493.750389	-399.242378	62.079455	517.548883	-434.887250	235.357975	288.856137	-436.161134	150.867346	354.868370	-498.897993	-126.449314	871.528726	-308.899786	37.267207	86.427045	-514.205754	33.334372	83.751954	-114.286790	
